HIERARCHY
ROOT root     
{
	OFFSET 0.0000 0.0000 0.0000
	CHANNELS 6 Xposition Yposition Zposition Zrotation Yrotation Xrotation
	JOINT pelvis   
	{
		OFFSET 0.0000 0.0000 0.0000
		CHANNELS 3 Zrotation Yrotation Xrotation
		JOINT thorax   
		{
			OFFSET 0.0000 23.0750 -5.0000
			CHANNELS 3 Zrotation Yrotation Xrotation
			JOINT rclavicle
			{
				OFFSET 0.0000 28.0009 0.0000
				CHANNELS 3 Zrotation Yrotation Xrotation
				JOINT rhumerus 
				{
					OFFSET -18.5725 5.5939 0.0000
					CHANNELS 3 Zrotation Yrotation Xrotation
					JOINT rradius  
					{
						OFFSET -24.8459 0.0000 0.0000
						CHANNELS 3 Zrotation Yrotation Xrotation
						JOINT rhand    
						{
							OFFSET -24.5477 0.0000 0.0000
							CHANNELS 3 Zrotation Yrotation Xrotation
							End Site
							{
								OFFSET -8.1826 0.0000 0.0000
							}
						}
					}
				}
			}
			JOINT lclavicle
			{
				OFFSET 0.0000 28.0009 0.0000
				CHANNELS 3 Zrotation Yrotation Xrotation
				JOINT lhumerus 
				{
					OFFSET 18.5725 5.5939 0.0000
					CHANNELS 3 Zrotation Yrotation Xrotation
					JOINT lradius  
					{
						OFFSET 24.8459 0.0000 0.0000
						CHANNELS 3 Zrotation Yrotation Xrotation
						JOINT lhand    
						{
							OFFSET 24.5477 0.0000 0.0000
							CHANNELS 3 Zrotation Yrotation Xrotation
							End Site
							{
								OFFSET 8.1826 0.0000 0.0000
							}
						}
					}
				}
			}
			JOINT head     
			{
				OFFSET 0.0000 35.2030 0.0000
				CHANNELS 3 Zrotation Yrotation Xrotation
				End Site
				{
					OFFSET 0.0000 11.7343 0.0000
				}
			}
		}
		JOINT rfemur   
		{
			OFFSET -8.2817 0.0000 0.0000
			CHANNELS 3 Zrotation Yrotation Xrotation
			JOINT rtibia   
			{
				OFFSET 0.0000 -43.3627 0.0000
				CHANNELS 3 Zrotation Yrotation Xrotation
				JOINT rfoot    
				{
					OFFSET 0.0000 -38.2947 0.0000
					CHANNELS 3 Zrotation Yrotation Xrotation
					JOINT rtoes    
					{
						OFFSET 0.0000 0.0000 16.6054
						CHANNELS 3 Zrotation Yrotation Xrotation
						End Site
						{
							OFFSET 0.0000 0.0000 5.5351
						}
					}
				}
			}
		}
		JOINT lfemur   
		{
			OFFSET 8.2817 0.0000 0.0000
			CHANNELS 3 Zrotation Yrotation Xrotation
			JOINT ltibia   
			{
				OFFSET 0.0000 -43.3627 0.0000
				CHANNELS 3 Zrotation Yrotation Xrotation
				JOINT lfoot    
				{
					OFFSET 0.0000 -38.2947 0.0000
					CHANNELS 3 Zrotation Yrotation Xrotation
					JOINT ltoes    
					{
						OFFSET 0.0000 0.0000 16.6054
						CHANNELS 3 Zrotation Yrotation Xrotation
						End Site
						{
							OFFSET 0.0000 0.0000 5.5351
						}
					}
				}
			}
		}
	}
}
MOTION
Frames: 7
Frame Time: .0333333
40.742 76.295 11.123 70.0123 -87.4512 -38.9086 0 -0 0 13.3685 0.522734 20.8707 14.9676 -7.16643 -1.2097e-05 48.1686 8.18612 1.48833 -2.36701e-06 82.1891 -2.06446e-06 -10.1614 3.28306 -0.291989 -14.9567 15.314 -8.73564e-05 -58.3262 22.1863 23.1328 6.33072e-07 -61.0362 -1.07397e-06 -4.6117 7.0365 -0.2837 -0.377904 -5.24421 -9.17857 13.8205 -16.9679 -62.0003 -0 -0 63.1227 6.9039e-06 1.73095 -20.3623 -0.602494 3.2858e-07 -9.85637 -4.29905 4.50542 -59.1256 -0 -0 82.3992 -0.000132724 18.8903 -14.8939 -5.0261 4.22384e-07 -5.68317 
40.029 76.448 11.009 69.6094 -87.4252 -38.3792 0 -0 0 13.0095 0.765208 20.9878 14.7662 -7.17891 3.59802e-06 47.604 8.47933 1.58823 -2.24877e-06 82.9179 -1.98683e-06 -10.3155 3.233 -0.291895 -14.933 15.4374 -3.59966e-06 -58.1259 22.6998 23.2112 0 -61.477 0 -4.68769 7.07933 -0.290101 -0.412203 -5.25787 -9.203 13.8747 -17.2419 -61.4699 -0 -0 62.8703 1.58968e-05 1.94911 -20.4173 -0.680199 9.77466e-09 -10.9978 -4.52157 4.16922 -60.9653 -0 -0 81.4185 3.96663e-05 18.7604 -15.1113 -5.06012 5.71904e-06 -6.17212 
39.307 76.596 10.896 69.1777 -87.4044 -37.8172 0 -0 0 12.6426 0.996909 21.0777 14.5787 -7.20254 -1.11961e-05 47.0401 8.74295 1.67997 -4.85707e-06 83.6641 -5.10586e-06 -10.4623 3.15749 -0.2892 -14.9213 15.5701 -6.30817e-05 -57.9134 23.2014 23.2984 -7.78068e-07 -61.9356 4.66922e-07 -4.75356 7.11531 -0.295697 -0.451812 -5.26903 -9.255 13.9264 -17.5007 -60.9312 -0 -0 62.6132 1.05122e-05 2.14875 -20.466 -0.751702 2.04981e-06 -12.1099 -4.78014 3.88251 -62.7654 -0 -0 80.2803 -0.000103499 18.6988 -15.2472 -5.08623 1.00586e-05 -6.50043 
38.573 76.737 10.784 68.7359 -87.3805 -37.2453 0 -0 0 12.2696 1.21816 21.1457 14.4033 -7.23501 -5.22005e-07 46.4834 8.9743 1.7644 -0 84.4238 -0 -10.5979 3.05672 -0.283594 -14.916 15.7158 -0.000192333 -57.6911 23.688 23.4005 -7.88362e-07 -62.4098 4.77541e-07 -4.80934 7.1399 -0.300205 -0.495012 -5.27833 -9.33127 13.9752 -17.7464 -60.3781 -0 -0 62.3546 1.84492e-05 2.33216 -20.5199 -0.817907 9.95881e-07 -13.1557 -5.08709 3.65093 -64.5027 -0 -0 78.9829 -3.45201e-05 18.6877 -15.3241 -5.10806 2.22399e-06 -6.579 
37.823 76.869 10.673 68.3444 -87.4001 -36.7467 0 -0 0 11.8824 1.42862 21.1976 14.2344 -7.26645 6.66548e-07 45.9495 9.16092 1.84093 -0 85.1902 -0 -10.7227 2.93941 -0.275901 -14.9182 15.8512 -0.000165179 -57.4626 24.1898 23.4877 0 -62.9111 0 -4.85828 7.15438 -0.303897 -0.5376 -5.28506 -9.42624 14.0143 -17.9846 -59.8001 -0 -0 62.0951 -2.13155e-05 2.50194 -20.5734 -0.879607 1.26985e-06 -14.2813 -5.45731 3.47303 -66.1565 -0 -0 77.5228 3.20577e-05 18.7021 -15.3397 -5.11743 8.27282e-06 -6.5793 
37.054 76.99 10.563 68.0277 -87.3949 -36.3277 0 -0 0 11.4914 1.63249 21.2368 14.0783 -7.30656 -9.07759e-06 45.4299 9.31194 1.91455 -2.06463e-06 85.9656 -2.21563e-06 -10.8309 2.79592 -0.265105 -14.9178 16.0051 -6.03985e-05 -57.2316 24.6658 23.6044 0 -63.4124 0 -4.89782 7.15205 -0.306302 -0.581704 -5.29429 -9.53778 14.0492 -18.2191 -59.1878 -0 -0 61.8389 -1.60567e-05 2.66342 -20.6615 -0.940313 1.02892e-06 -15.1896 -5.89525 3.35164 -67.7066 -0 -0 75.8978 -0.000163126 18.7082 -15.3515 -5.12273 -4.22797e-06 -6.23852 
36.262 77.099 10.456 67.8191 -87.4343 -36.0547 0 -0 0 11.0863 1.82859 21.2666 13.9297 -7.34421 -5.47016e-06 44.9398 9.41524 1.98602 -1.04808e-05 86.7368 -1.05569e-05 -10.9233 2.64066 -0.252502 -14.9182 16.1534 -3.43592e-05 -56.999 25.1531 23.716 0 -63.9295 0 -4.93339 7.13869 -0.307898 -0.622102 -5.30459 -9.65926 14.0709 -18.4553 -58.5369 -0 -0 61.5884 -7.84471e-06 2.82013 -20.7597 -1.00031 -5.78619e-06 -16.1856 -6.41166 3.27997 -69.1292 -0 -0 74.1002 0.00010137 18.6683 -15.3433 -5.10896 1.27873e-06 -5.89356 
